<svg width="26" height="25" viewBox="0 0 26 25" fill="none" xmlns="http://www.w3.org/2000/svg">
<mask id="mask0_574_1829" style="mask-type:alpha" maskUnits="userSpaceOnUse" x="0" y="0" width="26" height="25">
<mask id="mask1_574_1829" style="mask-type:luminance" maskUnits="userSpaceOnUse" x="0" y="0" width="26" height="25">
<path d="M25.5 0H0.5V25H25.5V0Z" fill="white"/>
</mask>
<g mask="url(#mask1_574_1829)">
<path d="M23.7954 20.4552H19.8181C17.3119 20.4552 15.2728 18.4161 15.2728 15.9098C15.2728 13.4035 17.3119 11.3645 19.8181 11.3645H23.7954C24.1094 11.3645 24.3636 11.1103 24.3636 10.7963V9.09177C24.3636 7.9003 23.4394 6.93134 22.2717 6.83737L19.0086 1.13789C18.7063 0.61077 18.218 0.234019 17.6337 0.0775766C17.0522 -0.077801 16.4441 0.00380286 15.9236 0.306728L4.73756 6.81904H2.77295C1.51955 6.81904 0.500244 7.8383 0.500244 9.09177V22.7279C0.500244 23.9813 1.51949 25.0006 2.77295 25.0006H22.0908C23.3442 25.0006 24.3636 23.9814 24.3636 22.7279V21.0234C24.3636 20.7093 24.1094 20.4552 23.7954 20.4552ZM19.7133 4.65667L20.9513 6.81904H15.9991L19.7133 4.65667ZM6.99606 6.81904L16.4957 1.2888C16.7526 1.13843 17.0527 1.09848 17.3396 1.17507C17.6298 1.25274 17.8717 1.44029 18.0221 1.70273L18.0233 1.70481L9.23916 6.81904H6.99606Z" fill="#3A3B3B"/>
<path d="M23.7952 12.4999H19.818C17.9381 12.4999 16.4089 14.0291 16.4089 15.9089C16.4089 17.7888 17.9381 19.318 19.818 19.318H23.7952C24.7351 19.318 25.4997 18.5534 25.4997 17.6135V14.2044C25.4997 13.2645 24.7351 12.4999 23.7952 12.4999ZM19.818 17.0453C19.1916 17.0453 18.6816 16.5354 18.6816 15.9089C18.6816 15.2825 19.1916 14.7726 19.818 14.7726C20.4444 14.7726 20.9543 15.2825 20.9543 15.9089C20.9544 16.5354 20.4444 17.0453 19.818 17.0453Z" fill="#3A3B3B"/>
</g>
</mask>
<g mask="url(#mask0_574_1829)">
<path d="M25.5 0.666855H0.5V25.6669H25.5V0.666855Z" fill="#3A3B3B"/>
<path d="M21.5001 -1.66676H5.16675C4.06218 -1.66676 3.16675 -0.771333 3.16675 0.333237V4.9999C3.16675 6.10447 4.06218 6.9999 5.16675 6.9999H21.5001C22.6047 6.9999 23.5001 6.10447 23.5001 4.9999V0.333237C23.5001 -0.771333 22.6047 -1.66676 21.5001 -1.66676Z" fill="#3A3B3B"/>
</g>
</svg>
