<svg width="26" height="25" viewBox="0 0 26 25" fill="none" xmlns="http://www.w3.org/2000/svg">
<mask id="mask0_574_37" style="mask-type:alpha" maskUnits="userSpaceOnUse" x="2" y="0" width="22" height="25">
<mask id="mask1_574_37" style="mask-type:luminance" maskUnits="userSpaceOnUse" x="0" y="0" width="26" height="25">
<path d="M25.5 0H0.5V25H25.5V0Z" fill="white"/>
</mask>
<g mask="url(#mask1_574_37)">
<path d="M12.822 12.043C14.4765 12.043 15.9091 11.4496 17.0796 10.2789C18.2502 9.10835 18.8435 7.67611 18.8435 6.02151C18.8435 4.36744 18.2502 2.93505 17.0794 1.76413C15.9087 0.593785 14.4763 0.000411987 12.822 0.000411987C11.1674 0.000411987 9.7352 0.593785 8.56464 1.76432C7.3941 2.93486 6.80054 4.36728 6.80054 6.02151C6.80054 7.67611 7.3941 9.10855 8.56484 10.2791C9.73557 11.4494 11.168 12.043 12.822 12.043Z" fill="#3A3B3B"/>
<path d="M23.3579 19.2231C23.3241 18.7359 23.2558 18.2045 23.1553 17.6434C23.0538 17.0781 22.9232 16.5436 22.7668 16.0552C22.6052 15.5503 22.3855 15.0517 22.1139 14.5739C21.832 14.078 21.5009 13.6462 21.1293 13.2908C20.7408 12.9191 20.2651 12.6202 19.715 12.4022C19.1668 12.1853 18.5593 12.0755 17.9095 12.0755C17.6543 12.0755 17.4075 12.1802 16.9309 12.4905C16.6375 12.6818 16.2944 12.9031 15.9114 13.1478C15.5839 13.3565 15.1402 13.552 14.5923 13.729C14.0576 13.902 13.5148 13.9897 12.979 13.9897C12.4432 13.9897 11.9006 13.902 11.3654 13.729C10.818 13.5521 10.3743 13.3566 10.0472 13.148C9.66787 12.9056 9.32453 12.6843 9.0268 12.4903C8.55073 12.18 8.30373 12.0753 8.04853 12.0753C7.3985 12.0753 6.7912 12.1853 6.24323 12.4024C5.69353 12.62 5.21763 12.9189 4.82873 13.291C4.45737 13.6466 4.12607 14.0782 3.84453 14.5739C3.57312 15.0517 3.35339 15.5501 3.19165 16.0553C3.03544 16.5438 2.90479 17.0781 2.80331 17.6434C2.7028 18.2038 2.63451 18.7353 2.60075 19.2236C2.56757 19.702 2.55078 20.1985 2.55078 20.6999C2.55078 22.0049 2.96563 23.0614 3.78369 23.8405C4.59163 24.6094 5.6607 24.9994 6.96077 24.9994H18.9984C20.2985 24.9994 21.3672 24.6096 22.1753 23.8405C22.9936 23.062 23.4084 22.0053 23.4084 20.6997C23.4082 20.196 23.3912 19.6991 23.3579 19.2231Z" fill="#3A3B3B"/>
</g>
</mask>
<g mask="url(#mask0_574_37)">
<path d="M25.5 0.667572H0.5V25.6676H25.5V0.667572Z" fill="#3A3B3B"/>
<path d="M12.9998 -1.66656H12.6665C9.07665 -1.66656 6.1665 1.24358 6.1665 4.83343V5.83343C6.1665 9.42329 9.07665 12.3334 12.6665 12.3334H12.9998C16.5897 12.3334 19.4998 9.42329 19.4998 5.83343V4.83343C19.4998 1.24358 16.5897 -1.66656 12.9998 -1.66656Z" fill="#3A3B3B"/>
</g>
</svg>
