<svg width="26" height="25" viewBox="0 0 26 25" fill="none" xmlns="http://www.w3.org/2000/svg">
<path d="M2.77273 11.1111H20.9545V5.55556H2.77273V11.1111ZM20.9545 25C20.6326 25 20.3625 24.8667 20.1443 24.6C19.9261 24.3333 19.8174 24.0037 19.8182 23.6111V20.8333H17.5455C17.2235 20.8333 16.9534 20.7 16.7352 20.4333C16.517 20.1667 16.4083 19.837 16.4091 19.4444C16.4091 19.0509 16.5182 18.7208 16.7364 18.4542C16.9545 18.1875 17.2242 18.0546 17.5455 18.0556H19.8182V15.2778C19.8182 14.8843 19.9273 14.5542 20.1455 14.2875C20.3636 14.0208 20.6333 13.888 20.9545 13.8889C21.2765 13.8889 21.5466 14.0222 21.7648 14.2889C21.983 14.5556 22.0917 14.8852 22.0909 15.2778V18.0556H24.3636C24.6856 18.0556 24.9557 18.1889 25.1739 18.4556C25.392 18.7222 25.5008 19.0518 25.5 19.4444C25.5 19.838 25.3909 20.1681 25.1727 20.4347C24.9545 20.7014 24.6848 20.8343 24.3636 20.8333H22.0909V23.6111C22.0909 24.0046 21.9818 24.3347 21.7636 24.6014C21.5455 24.8681 21.2758 25.0009 20.9545 25ZM2.77273 22.2222C2.14773 22.2222 1.6125 21.95 1.16705 21.4056C0.721593 20.8611 0.499244 20.2074 0.500002 19.4444V2.77778C0.500002 2.01389 0.722729 1.35972 1.16818 0.81528C1.61364 0.270835 2.14849 -0.000923568 2.77273 2.35805e-06H20.9545C21.5795 2.35805e-06 22.1148 0.272224 22.5602 0.816669C23.0057 1.36111 23.228 2.01482 23.2273 2.77778V11.1111H19.8182C18.2462 11.1111 16.9061 11.7884 15.7977 13.1431C14.6894 14.4977 14.1356 16.1352 14.1364 18.0556V22.2222H2.77273Z" fill="#3A3B3B"/>
</svg>
