<svg width="26" height="25" viewBox="0 0 26 25" fill="none" xmlns="http://www.w3.org/2000/svg">
<path d="M3 25C2.3125 25 1.72375 24.7278 1.23375 24.1833C0.743752 23.6389 0.499169 22.9852 0.500002 22.2222V2.77778C0.500002 2.01389 0.745002 1.35972 1.235 0.81528C1.725 0.270835 2.31333 -0.000923568 3 2.35805e-06H23C23.6875 2.35805e-06 24.2762 0.272225 24.7662 0.816669C25.2562 1.36111 25.5008 2.01482 25.5 2.77778V22.2222C25.5 22.9861 25.255 23.6403 24.765 24.1847C24.275 24.7292 23.6867 25.0009 23 25H3ZM4.25 19.4444H10.5V16.6667H4.25V19.4444ZM16.1875 16.6667L22.375 9.79167L20.5937 7.8125L16.1875 12.7431L14.4062 10.7639L12.6563 12.7431L16.1875 16.6667ZM4.25 13.8889H10.5V11.1111H4.25V13.8889ZM4.25 8.33333H10.5V5.55556H4.25V8.33333Z" fill="#3A3B3B"/>
</svg>
